<svg xmlns="http://www.w3.org/2000/svg" viewBox="0 0 47.08 47.08"><defs><style>.cls-1{fill:#0052f5;}</style></defs><g id="Layer_2" data-name="Layer 2"><g id="Homepage"><path class="cls-1" d="M41.59,4.71H5.49a.78.78,0,0,0-.78.78v36.1a.79.79,0,0,0,.57.76A.81.81,0,0,0,6.17,42c0-.08,4.54-7.47,9.52-7.47a12.17,12.17,0,0,1,8.08,2.91.81.81,0,0,0,.71.21.79.79,0,0,0,.58-.47c.12-.3,3.11-7.36,13.39-7.36a.79.79,0,1,0,0-1.57A19.89,19.89,0,0,0,33,29V26.6a3.93,3.93,0,0,0,3.14-3.84c0-.1-.05-10.2-3.93-10.2s-3.92,10.1-3.92,10.2a3.93,3.93,0,0,0,3.14,3.84v2.89a14.43,14.43,0,0,0-7.32,6.16A14,14,0,0,0,15.69,33c-4,0-7.53,3.69-9.41,6.13V6.28H40.81V40.81H8.63a.78.78,0,0,0-.78.78.79.79,0,0,0,.78.79h33a.79.79,0,0,0,.79-.79V5.49A.78.78,0,0,0,41.59,4.71ZM29.82,22.76c0-3.91,1.05-8.63,2.35-8.63s2.36,4.72,2.36,8.63a2.36,2.36,0,0,1-4.71,0Z"/><path class="cls-1" d="M22.76,17.26a.78.78,0,0,0,.78-.78.79.79,0,0,0-.78-.79H20.32a4,4,0,0,0-.57-1.37l1.72-1.73a.78.78,0,0,0,0-1.11.8.8,0,0,0-1.11,0l-1.72,1.73a3.84,3.84,0,0,0-1.38-.57V10.2a.79.79,0,0,0-1.57,0v2.44a3.92,3.92,0,0,0-1.38.57l-1.73-1.73a.79.79,0,0,0-1.11,0,.8.8,0,0,0,0,1.11l1.73,1.72a3.87,3.87,0,0,0-.57,1.37H10.2a.79.79,0,0,0-.78.79.78.78,0,0,0,.78.78h2.44a3.92,3.92,0,0,0,.57,1.38l-1.72,1.72a.78.78,0,0,0,0,1.11.74.74,0,0,0,.55.23.78.78,0,0,0,.56-.23l1.72-1.72a4,4,0,0,0,1.37.57v2.44a.79.79,0,0,0,.79.78.78.78,0,0,0,.78-.78V20.32a3.92,3.92,0,0,0,1.38-.57l1.72,1.72a.78.78,0,0,0,.56.23.74.74,0,0,0,.55-.23.78.78,0,0,0,0-1.11l-1.72-1.72a3.92,3.92,0,0,0,.57-1.38Zm-3.93-.78a2.35,2.35,0,0,1-2.35,2.35h0a2.35,2.35,0,1,1,2.35-2.35Z"/><path class="cls-1" d="M45.52,38.88V8.2a4.7,4.7,0,1,0-6.64-6.63H8.2A4.7,4.7,0,1,0,1.57,8.2V38.88A4.7,4.7,0,1,0,8.2,45.52H38.88a4.7,4.7,0,1,0,6.64-6.64Zm-3.14,6.64a3.13,3.13,0,0,1-2.5-1.26.78.78,0,0,0-.63-.31H7.83a.78.78,0,0,0-.63.31,3.1,3.1,0,0,1-2.49,1.26,3.13,3.13,0,0,1-1.88-5.64.81.81,0,0,0,.31-.63V7.83a.81.81,0,0,0-.31-.63A3.1,3.1,0,0,1,1.57,4.71,3.15,3.15,0,0,1,4.71,1.57,3.1,3.1,0,0,1,7.2,2.83a.81.81,0,0,0,.63.31H39.25a.81.81,0,0,0,.63-.31,3.13,3.13,0,0,1,5.64,1.88A3.1,3.1,0,0,1,44.26,7.2a.78.78,0,0,0-.31.63V39.25a.78.78,0,0,0,.31.63,3.13,3.13,0,0,1-1.88,5.64Z"/></g></g></svg>