<svg xmlns="http://www.w3.org/2000/svg" viewBox="0 0 44.59 44.59"><defs><style>.cls-1{fill:#0052f5;}</style></defs><g id="Layer_2" data-name="Layer 2"><g id="Homepage"><path class="cls-1" d="M42.86,25.23h-.77V15.42a1.92,1.92,0,0,0-1.92-1.92H17.6a1.89,1.89,0,0,0-1.37.58,1.82,1.82,0,0,0-.53,1.34v9.81H15a1.45,1.45,0,0,0-1.47,1.41V42.39A5.87,5.87,0,0,1,9.83,37v-.74H9.1V12h7.33V.3H.3V12H4.7v4.4a.74.74,0,0,0,1.47,0V12H7.63V36.22H6.9V37A5.87,5.87,0,0,1,1,42.82a.74.74,0,1,0,0,1.47H17.9V40.62h22v3.67h4.4V26.64A1.42,1.42,0,0,0,42.86,25.23ZM1.77,1.77H15v8.8H1.77ZM17.16,15.4a.4.4,0,0,1,.12-.3A.43.43,0,0,1,17.6,15H40.17a.46.46,0,0,1,.45.46v9.81H39.08a1.39,1.39,0,0,0-1.39,1.41v2.25H20.1v-2.2a1.5,1.5,0,0,0-1.47-1.46H17.16Zm2.94,15H37.69v2.93H20.1ZM5.43,42.82a7.33,7.33,0,0,0,2.9-5.13H8.4a7.37,7.37,0,0,0,2.9,5.13Zm11,0H15.7a5.84,5.84,0,0,1-.73,0V40.62h1.46Zm26.39,0H41.36v-2.2h1.46Zm-2.93-3.66H15V26.69h.73l2.93,0v8H39.16V26.69h3.66V39.16Z"/><path class="cls-1" d="M44.59,44.59h-5V40.93H18.2v3.66H1a1,1,0,1,1,0-2.07A5.57,5.57,0,0,0,6.6,37v-1h.73V12.34H6.47v4.09a1,1,0,1,1-2.07,0V12.34H0V0H16.73V12.34H9.4V35.92h.74v1a5.52,5.52,0,0,0,3.06,5V26.64A1.76,1.76,0,0,1,15,24.93h.42V15.42A2.2,2.2,0,0,1,17.6,13.2H40.17a2.22,2.22,0,0,1,2.22,2.22v9.51h.47a1.71,1.71,0,0,1,1.73,1.71Zm-4.4-.6H44V26.64a1.12,1.12,0,0,0-1.13-1.11H41.79V15.42a1.63,1.63,0,0,0-1.62-1.62H17.6a1.62,1.62,0,0,0-1.16.49A1.59,1.59,0,0,0,16,15.41V25.53H15a1.16,1.16,0,0,0-1.17,1.11v16.2l-.41-.17A6.13,6.13,0,0,1,9.53,37v-.43H8.8V11.73h7.33V.61H.61V11.73H5v4.7a.43.43,0,0,0,.43.43.43.43,0,0,0,.43-.43v-4.7H7.94v24.8H7.21V37A6.18,6.18,0,0,1,1,43.13a.43.43,0,0,0-.43.43A.43.43,0,0,0,1,44H17.59V40.32h22.6Zm2.94-.86H41.05V40.32h2.08Zm-1.47-.61h.86V40.93h-.86Zm-24.93.61h-1a6.48,6.48,0,0,1-.77-.06l-.27,0V40.32h2.07Zm-1.46-.63.43,0h.43V40.93h-.86Zm-3.06.63H4.52l.73-.55A7.05,7.05,0,0,0,8,37.66l0-.27h.55l.1.27a7,7,0,0,0,2.78,4.92Zm-6-.61h4.21a7.72,7.72,0,0,1-2.1-3.44A7.65,7.65,0,0,1,6.26,42.52Zm36.87-3.06H14.66V26.39l4.27,0v8H38.85V26.39h4.28Zm-27.86-.61H42.52V27H39.46v8.06H18.33V27l-3.06,0ZM38,33.6H19.79V30.06H38ZM20.4,33h17V30.66h-17ZM38,29.2H19.79V26.69a1.21,1.21,0,0,0-1.16-1.16H16.86V15.4a.73.73,0,0,1,.74-.74H40.17a.76.76,0,0,1,.76.76V25.53H39.08A1.09,1.09,0,0,0,38,26.64ZM20.4,28.59h17V26.64a1.68,1.68,0,0,1,1.69-1.71h1.24V15.42a.15.15,0,0,0-.15-.15H17.6a.12.12,0,0,0-.1,0,.1.1,0,0,0,0,.08v9.54h1.16a1.81,1.81,0,0,1,1.77,1.76ZM15.27,10.87H1.47V1.47h13.8Zm-13.2-.61H14.66V2.07H2.07Z"/></g></g></svg>