<svg xmlns="http://www.w3.org/2000/svg" viewBox="0 0 45.7 45.62"><defs><style>.cls-1{fill:#0052f5;}</style></defs><g id="Layer_2" data-name="Layer 2"><g id="Homepage"><path class="cls-1" d="M34.6,36,8.79,10.17a3.3,3.3,0,0,0-4.67,0L1,13.32A3.3,3.3,0,0,0,1,18L26.78,43.8a.76.76,0,0,0,.42.23l8.24,1.58a.85.85,0,0,0,.74-.23.81.81,0,0,0,.22-.74l-1.57-8.23A.76.76,0,0,0,34.6,36ZM2.13,16.83h0a1.67,1.67,0,0,1,0-2.34l3.16-3.15a1.64,1.64,0,0,1,2.33,0L9.26,13,3.77,18.46Zm2.81,2.8,5.49-5.49.81.82L5.75,20.45Zm2,2,5.49-5.49L32.85,36.56l-5.49,5.49Zm24,21.44-1.82-.35,4.45-4.45.35,1.82a5,5,0,0,0-3,3Zm1.65.32a3.47,3.47,0,0,1,.68-1,3.33,3.33,0,0,1,1-.67l.39,2Z"/><path class="cls-1" d="M29.29,37.32,11.77,19.8A.83.83,0,1,0,10.6,21L28.12,38.49a.83.83,0,0,0,1.17-1.17Z"/><path class="cls-1" d="M40.85,23.66,19.48,2.29l0,0a1.15,1.15,0,0,1,1.63,0l8.64,8.64a2.82,2.82,0,0,0,4,0,.82.82,0,0,0-1.16-1.17,1.16,1.16,0,0,1-1.64,0L22.31,1.09a2.8,2.8,0,0,0-4,0l-.62.61-.4.41L15.45.24a.83.83,0,0,0-1.17,0L9.61,4.91a.83.83,0,0,0,0,1.17L11.48,8l-.41.41a.83.83,0,0,0,0,1.17l22,22a16.65,16.65,0,0,0,11.85,4.85.9.9,0,0,0,.58-.24.83.83,0,0,0,.24-.58A16.66,16.66,0,0,0,40.85,23.66ZM11.36,5.5,14.86,2l1.29,1.29-3.51,3.5Zm1.46,3.44,5.49-5.49,3.62,3.62-5.49,5.49Zm4.79,4.79L23.1,8.24l16,16-5.49,5.49ZM34.8,30.89l5.45-5.46A15,15,0,0,1,44,34.67,15,15,0,0,1,34.8,30.89Z"/></g></g></svg>