<svg xmlns="http://www.w3.org/2000/svg" viewBox="0 0 47.08 43.82"><defs><style>.cls-1{fill:#0052f5;stroke:#0052f5;stroke-miterlimit:10;stroke-width:0.25px;}</style></defs><g id="Layer_2" data-name="Layer 2"><g id="Homepage"><path class="cls-1" d="M25.86,26.32a1.7,1.7,0,0,0-2.4,0,.38.38,0,0,1-.54,0l-2.06-2.05a.39.39,0,0,1,0-.54,1.68,1.68,0,0,0,0-2.4h0l-.51-.52a1.71,1.71,0,0,0-2.41,0l-3.46,3.46a1.7,1.7,0,0,0,0,2.41l.52.52a1.67,1.67,0,0,0,1.2.49,1.69,1.69,0,0,0,1.2-.49.38.38,0,0,1,.54,0l2,2.05a.36.36,0,0,1,0,.54A1.69,1.69,0,0,0,19.5,31a1.67,1.67,0,0,0,.49,1.2l.52.52a1.7,1.7,0,0,0,2.41,0l3.46-3.46a1.71,1.71,0,0,0,0-2.41Zm-.51,1.89-3.47,3.47a.24.24,0,0,1-.33,0L21,31.16a.24.24,0,0,1,0-.34,1.81,1.81,0,0,0,.54-1.3A1.83,1.83,0,0,0,21,28.21L19,26.16a1.86,1.86,0,0,0-2.62,0,.23.23,0,0,1-.16.07.24.24,0,0,1-.17-.07l-.52-.52a.24.24,0,0,1,0-.33L19,21.84a.24.24,0,0,1,.33,0l.52.52a.25.25,0,0,1,0,.34,1.81,1.81,0,0,0-.54,1.3,1.83,1.83,0,0,0,.54,1.31l2.05,2.05a1.85,1.85,0,0,0,2.61,0,.25.25,0,0,1,.34,0l.52.52A.24.24,0,0,1,25.35,28.21Z"/><path class="cls-1" d="M28.92,11.63a4.16,4.16,0,0,0-4.18,3.47,4.16,4.16,0,0,0-3.47,4.18,4.19,4.19,0,0,0,4.21,4.08h6.27A1.25,1.25,0,0,0,33,22.11V15.84A4.19,4.19,0,0,0,28.92,11.63ZM31.54,21.9H25.48a2.74,2.74,0,0,1-2.75-2.65,2.7,2.7,0,0,1,2.69-2.74.72.72,0,0,0,.73-.73,2.7,2.7,0,0,1,2.7-2.69h0a2.74,2.74,0,0,1,2.65,2.75V21.9Z"/><path class="cls-1" d="M46.07,20.22,26.86,1a3,3,0,0,0-4.31,0L4.38,19.19a3,3,0,0,0,0,4.31l.17.17L2.43,25.8a7.86,7.86,0,0,0,0,11.12L6.9,41.4A7.87,7.87,0,0,0,18,41.4l2.13-2.13,3.43,3.43a3,3,0,0,0,4.32,0L46.07,24.54a3.07,3.07,0,0,0,0-4.32ZM17,40.36a6.39,6.39,0,0,1-9,0L3.46,35.89a6.4,6.4,0,0,1,0-9l2.13-2.13,1.8,1.81L5.27,28.64a3.84,3.84,0,0,0,0,5.44l4.47,4.48a3.86,3.86,0,0,0,5.44,0l2.13-2.13,1.8,1.81ZM8.43,27.55l7.84,7.85-2.12,2.12a2.38,2.38,0,0,1-3.37,0L6.3,33.05a2.4,2.4,0,0,1,0-3.37ZM45,23.5,26.86,41.67a1.58,1.58,0,0,1-2.24,0L5.41,22.47a1.61,1.61,0,0,1,0-2.25L23.58,2.05a1.59,1.59,0,0,1,2.25,0L45,21.26A1.58,1.58,0,0,1,45,23.5Z"/></g></g></svg>