<svg xmlns="http://www.w3.org/2000/svg" viewBox="0 0 37.25 37.25"><defs><style>.cls-1{fill:#0052f5;}</style></defs><g id="Layer_2" data-name="Layer 2"><g id="Homepage"><path class="cls-1" d="M36.25,37.25H1a1,1,0,0,1-1-1V8.05a1,1,0,0,1,1-1H36.25a1,1,0,0,1,1,1v28.2A1,1,0,0,1,36.25,37.25ZM2,35.26H35.26V9H2Z"/><path class="cls-1" d="M31.55,20.79H5.7A5.7,5.7,0,0,1,0,15.1v-7a1,1,0,0,1,1-1H36.25a1,1,0,0,1,1,1v7A5.7,5.7,0,0,1,31.55,20.79ZM2,9V15.1A3.71,3.71,0,0,0,5.7,18.8H31.55a3.71,3.71,0,0,0,3.71-3.7V9Z"/><path class="cls-1" d="M28,9a1,1,0,0,1-1-1V3.35A1.36,1.36,0,0,0,25.67,2H11.57a1.35,1.35,0,0,0-1.35,1.36v4.7a1,1,0,0,1-2,0V3.35A3.35,3.35,0,0,1,11.57,0h14.1A3.35,3.35,0,0,1,29,3.35v4.7A1,1,0,0,1,28,9Z"/><path class="cls-1" d="M18.62,25.49a3.35,3.35,0,0,1-3.34-3.34v-4.7a3.35,3.35,0,1,1,6.69,0v4.7A3.35,3.35,0,0,1,18.62,25.49Zm0-9.4a1.36,1.36,0,0,0-1.35,1.36v4.7a1.36,1.36,0,0,0,2.71,0v-4.7A1.36,1.36,0,0,0,18.62,16.09Z"/><path class="cls-1" d="M21,20.79h-4.7a1,1,0,0,1,0-2H21a1,1,0,1,1,0,2Z"/></g></g></svg>