<svg xmlns="http://www.w3.org/2000/svg" viewBox="0 0 33.36 42.36"><defs><style>.cls-1{fill:#0052f5;}</style></defs><g id="Layer_2" data-name="Layer 2"><g id="Homepage"><path class="cls-1" d="M32.43,0H.93A.93.93,0,0,0,0,.93V41.44a.93.93,0,0,0,.93.92H22.08a.91.91,0,0,0,.66-.27L33.09,31.74a.93.93,0,0,0,.27-.65V.93A.93.93,0,0,0,32.43,0ZM23,39.2V32H30.2Zm8.5-9H22.08a.92.92,0,0,0-.92.92v2.3H9.92a.93.93,0,0,0,0,1.85H21.16v5.28H1.85V1.85H31.51Z"/><path class="cls-1" d="M22.17,11.26a5.51,5.51,0,1,0-5.51,5.51A5.51,5.51,0,0,0,22.17,11.26Zm-5.51,3.66a3.66,3.66,0,1,1,3.65-3.66A3.66,3.66,0,0,1,16.66,14.92Z"/><path class="cls-1" d="M9.92,25.59a.93.93,0,0,0,.93-.92V22.13a3.51,3.51,0,0,1,3.5-3.51H19a3.51,3.51,0,0,1,3.51,3.51v2.54a.93.93,0,0,0,1.85,0V22.13A5.36,5.36,0,0,0,19,16.77H14.35A5.36,5.36,0,0,0,9,22.13v2.54A.92.92,0,0,0,9.92,25.59Z"/></g></g></svg>