<svg xmlns="http://www.w3.org/2000/svg" viewBox="0 0 32.83 32.82"><defs><style>.cls-1{fill:#fff;}</style></defs><g id="Layer_2" data-name="Layer 2"><g id="Homepage"><path class="cls-1" d="M23.88,18.05a3.26,3.26,0,0,0,2.87-1.69L32.62,5.71a1.64,1.64,0,0,0-1.43-2.43H6.91L5.37,0H0V3.28H3.28L9.19,15.74,7,19.74a3.29,3.29,0,0,0,2.88,4.87H29.54V21.33H9.85l1.8-3.28ZM8.47,6.56H28.4l-4.52,8.21H12.36Zm1.38,19.7a3.28,3.28,0,1,0,3.28,3.28A3.27,3.27,0,0,0,9.85,26.26Zm16.41,0a3.28,3.28,0,1,0,3.28,3.28A3.27,3.27,0,0,0,26.26,26.26Z"/></g></g></svg>