<svg xmlns="http://www.w3.org/2000/svg" viewBox="0 0 42.39 45.37"><defs><style>.cls-1{fill:#0052f5;}</style></defs><g id="Layer_2" data-name="Layer 2"><g id="Homepage"><circle class="cls-1" cx="18.96" cy="18.21" r="0.75"/><path class="cls-1" d="M19,19.26A1.05,1.05,0,1,1,20,18.21,1,1,0,0,1,19,19.26Zm0-1.49a.44.44,0,1,0,.44.44A.45.45,0,0,0,19,17.77Z"/><circle class="cls-1" cx="18.96" cy="23.43" r="0.75"/><path class="cls-1" d="M19,24.48A1.05,1.05,0,1,1,20,23.43,1,1,0,0,1,19,24.48ZM19,23a.45.45,0,1,0,.44.44A.45.45,0,0,0,19,23Z"/><circle class="cls-1" cx="18.96" cy="28.66" r="0.75"/><path class="cls-1" d="M19,29.71A1.05,1.05,0,1,1,20,28.66,1,1,0,0,1,19,29.71Zm0-1.5a.45.45,0,1,0,.44.45A.45.45,0,0,0,19,28.21Z"/><circle class="cls-1" cx="18.96" cy="33.88" r="0.75"/><path class="cls-1" d="M19,34.93a1.05,1.05,0,1,1,1.05-1A1,1,0,0,1,19,34.93Zm0-1.49a.44.44,0,1,0,.44.44A.45.45,0,0,0,19,33.44Z"/><path class="cls-1" d="M32.39,19h-6a.75.75,0,0,0-.75.74v7.46a.75.75,0,0,0,.75.75h6a.74.74,0,0,0,.74-.75V19.7A.74.74,0,0,0,32.39,19Zm-.75,7.46H27.16v-6h4.48Z"/><path class="cls-1" d="M32.39,28.21h-6a1,1,0,0,1-1.05-1.05V19.7a1,1,0,0,1,1.05-1.05h6a1,1,0,0,1,1,1.05v7.46A1,1,0,0,1,32.39,28.21Zm-6-8.95a.44.44,0,0,0-.44.44v7.46a.44.44,0,0,0,.44.45h6a.45.45,0,0,0,.44-.45V19.7a.44.44,0,0,0-.44-.44Zm5.52,7.46H26.86V20.15h5.08Zm-4.47-.6h3.87V20.75H27.47Z"/><path class="cls-1" d="M39.85,8.51H37.61V6.27A2.24,2.24,0,0,0,35.37,4H27.8C27.11,1.81,23.38.3,19,.3S10.8,1.81,10.12,4H2.54A2.25,2.25,0,0,0,.3,6.27V38.36a2.24,2.24,0,0,0,2.24,2.23H4.78v2.24A2.24,2.24,0,0,0,7,45.07H39.85a2.24,2.24,0,0,0,2.24-2.24V10.75A2.24,2.24,0,0,0,39.85,8.51Zm-29.75-3a.71.71,0,0,1,.54.24L14.5,10,13,13.48,9,5.53Zm17.17.24a.72.72,0,0,1,.55-.24h1.12l-4,8L23.41,10ZM19,1.8c3.93,0,7.08,1.33,7.43,2.72L22,9.33h0L19.51,12a.75.75,0,0,1-1.1,0l-2.48-2.7h0l-4.4-4.81C11.88,3.13,15,1.8,19,1.8ZM1.8,38.36V6.27a.74.74,0,0,1,.74-.74H7.3l5,10a.75.75,0,0,0,1.35,0l1.93-4.35L17.31,13h0l1.1,1.2a.75.75,0,0,0,1.1,0L20.6,13h0l1.7-1.86,1.93,4.35a.75.75,0,0,0,1.35,0l5-10h4.76a.75.75,0,0,1,.75.74V38.36a.75.75,0,0,1-.75.74H2.54A.74.74,0,0,1,1.8,38.36Zm38.79,4.47a.74.74,0,0,1-.74.75H7a.75.75,0,0,1-.75-.75V40.59h29.1a2.23,2.23,0,0,0,2.24-2.23V10h2.24a.75.75,0,0,1,.74.75Z"/><path class="cls-1" d="M39.85,45.37H7a2.54,2.54,0,0,1-2.54-2.54V40.9H2.54A2.54,2.54,0,0,1,0,38.36V6.27A2.54,2.54,0,0,1,2.54,3.73H9.9C10.78,1.52,14.44,0,19,0S27.14,1.52,28,3.73h7.36a2.54,2.54,0,0,1,2.54,2.54V8.21h1.94a2.54,2.54,0,0,1,2.54,2.54V42.83A2.54,2.54,0,0,1,39.85,45.37ZM2.54,4.34A1.93,1.93,0,0,0,.61,6.27V38.36a1.93,1.93,0,0,0,1.93,1.93H5.08v2.54A1.94,1.94,0,0,0,7,44.77H39.85a1.93,1.93,0,0,0,1.93-1.94V10.75a1.93,1.93,0,0,0-1.93-1.94H37.31V6.27a1.94,1.94,0,0,0-1.94-1.93H27.6l-.09-.22C26.88,2.09,23.28.61,19,.61S11,2.09,10.41,4.12l-.07.22ZM39.85,43.88H7a1,1,0,0,1-1-1.05V40.29h29.4a1.94,1.94,0,0,0,1.94-1.93V9.7h2.54a1,1,0,0,1,1,1.05V42.83A1,1,0,0,1,39.85,43.88Zm-33.27-3v1.93a.44.44,0,0,0,.44.45H39.85a.45.45,0,0,0,.44-.45V10.75a.44.44,0,0,0-.44-.44H37.91V38.36a2.54,2.54,0,0,1-2.54,2.54Zm28.79-1.49H2.54a1.06,1.06,0,0,1-1-1V6.27a1,1,0,0,1,1.05-1h5l5.1,10.2a.44.44,0,0,0,.4.25h0a.44.44,0,0,0,.39-.26l2.12-4.78L18.63,14a.44.44,0,0,0,.65,0l3.12-3.4,2.12,4.78a.44.44,0,0,0,.39.26.41.41,0,0,0,.41-.25l5.1-10.2h4.95a1,1,0,0,1,1.05,1V38.36A1.06,1.06,0,0,1,35.37,39.41ZM2.54,5.83a.44.44,0,0,0-.44.44V38.36a.44.44,0,0,0,.44.44H35.37a.44.44,0,0,0,.44-.44V6.27a.44.44,0,0,0-.44-.44H30.8L25.86,15.7a1.08,1.08,0,0,1-1,.58,1,1,0,0,1-.93-.63l-1.75-3.93-2.49,2.72a1.08,1.08,0,0,1-1.55,0l-2.49-2.72L14,15.65a1.05,1.05,0,0,1-.94.63,1.07,1.07,0,0,1-1-.58L7.12,5.83ZM13,14.19l-4.48-9H10.1a1.08,1.08,0,0,1,.77.34l4,4.36ZM9.46,5.83l3.47,6.94L14.14,10,10.42,6a.43.43,0,0,0-.32-.14ZM25,14.19l-1.9-4.27,4-4.36a1,1,0,0,1,.77-.34h1.61ZM23.77,10,25,12.77l3.47-6.94h-.63a.47.47,0,0,0-.33.14h0ZM19,12.57a1.07,1.07,0,0,1-.78-.33l-7-7.63,0-.16c.42-1.66,3.81-3,7.73-3s7.31,1.3,7.72,3l0,.16-7,7.63A1.07,1.07,0,0,1,19,12.57ZM11.87,4.45l6.76,7.38a.46.46,0,0,0,.65,0L26,4.45C25.55,3.31,22.64,2.1,19,2.1S12.37,3.31,11.87,4.45Z"/></g></g></svg>