<svg xmlns="http://www.w3.org/2000/svg" viewBox="0 0 37.25 33.84"><defs><style>.cls-1{fill:#0052f5;}</style></defs><g id="Layer_2" data-name="Layer 2"><g id="Homepage"><path class="cls-1" d="M36.13,7H33.87l-1.6-5.16A2.61,2.61,0,0,0,29.77,0H7.42a2.6,2.6,0,0,0-2.5,1.86L3.37,7H1.12A1.12,1.12,0,0,0,0,8.12v18.8A1.12,1.12,0,0,0,1.12,28H3.93L3.1,32.51a1.12,1.12,0,0,0,.24.92,1.11,1.11,0,0,0,.86.41H33.05a1.13,1.13,0,0,0,1.1-1.33L33.32,28h2.81a1.12,1.12,0,0,0,1.12-1.12V8.12A1.13,1.13,0,0,0,36.13,7ZM7.06,2.51a.37.37,0,0,1,.36-.27H29.77a.38.38,0,0,1,.36.26L31.53,7H5.71ZM31.7,31.6H5.55l1.66-9H30ZM35,25.8H32.9l-.83-4.5a1.12,1.12,0,0,0-1.1-.92H6.28a1.12,1.12,0,0,0-1.1.92l-.84,4.5H2.24V9.24H35Z"/><path class="cls-1" d="M32.57,11.18H29.18a1.12,1.12,0,0,0,0,2.24h3.39a1.12,1.12,0,0,0,0-2.24Z"/><path class="cls-1" d="M26.82,27.64H10.43a1.12,1.12,0,0,0,0,2.24H26.82a1.12,1.12,0,1,0,0-2.24Z"/></g></g></svg>