<svg xmlns="http://www.w3.org/2000/svg" viewBox="0 0 29.74 44.59"><defs><style>.cls-1{fill:#0052f5;}</style></defs><g id="Layer_2" data-name="Layer 2"><g id="Homepage"><path class="cls-1" d="M29.67,18.3a7.57,7.57,0,0,0-3.28-5.37l-5-3.47a2.58,2.58,0,0,1,0-.49V7.39a3,3,0,0,0,2.78-2.77V3.14A3.38,3.38,0,0,0,20.73,0H9A3.39,3.39,0,0,0,5.57,3.14V4.62A3,3,0,0,0,8.36,7.39V9a1.86,1.86,0,0,1,0,.47L3.24,12.93A7.37,7.37,0,0,0,.06,18.32a1.1,1.1,0,0,0-.06.26l0,.14c0,.17,0,.32,0,.49v19.3a6.08,6.08,0,0,0,6.07,6.08h17.6a6.09,6.09,0,0,0,6.07-6.08V18.58A1.43,1.43,0,0,0,29.67,18.3ZM7.43,4.62V3.14A1.57,1.57,0,0,1,9,1.86H20.74a1.58,1.58,0,0,1,1.57,1.28V4.62c0,.65-.93,1-1.57,1H9C8.36,5.57,7.43,5.27,7.43,4.62ZM4.27,14.46,9.37,11a2.18,2.18,0,0,0,.85-2V7.43h9.29V9a2.19,2.19,0,0,0,.83,2l5,3.5a5.69,5.69,0,0,1,2.31,3.19H2A5.46,5.46,0,0,1,4.27,14.46ZM23.66,42.73H6.07A4.2,4.2,0,0,1,1.91,39H27.82A4.2,4.2,0,0,1,23.66,42.73Zm4.21-5.57h-26V19.51h26Z"/><path class="cls-1" d="M9.29,31.59h1.86v1.85a.93.93,0,0,0,.93.93h5.57a.93.93,0,0,0,.93-.93V31.59h1.86a.93.93,0,0,0,.93-.93V26a.93.93,0,0,0-.93-.93H18.58V23.22a.93.93,0,0,0-.93-.92H12.08a.93.93,0,0,0-.93.92v1.86H9.29a.93.93,0,0,0-.93.93v4.65A.93.93,0,0,0,9.29,31.59Zm.93-4.65h1.86A.93.93,0,0,0,13,26V24.15h3.71V26a.93.93,0,0,0,.93.93h1.86v2.79H17.65a.93.93,0,0,0-.93.93v1.85H13V30.66a.93.93,0,0,0-.93-.93H10.22Z"/></g></g></svg>