<svg xmlns="http://www.w3.org/2000/svg" viewBox="0 0 48.14 43.72"><defs><style>.cls-1{fill:#0052f5;}</style></defs><g id="Layer_2" data-name="Layer 2"><g id="Homepage"><path class="cls-1" d="M47.16,12.77H38.32V2a1,1,0,0,0-1-1H26.53a1,1,0,0,0-1,1V12.77h-4a5.83,5.83,0,0,0-.1-7.94l1.08-3.56A1,1,0,0,0,22.4.4a1,1,0,0,0-.79-.4H12.77a1,1,0,0,0-.94,1.27L12.9,4.83a5.86,5.86,0,0,0-.1,7.94H1a1,1,0,0,0-1,1v3.44a1,1,0,0,0,1,1h.49v2.94a3,3,0,0,0,3,2.95V42.74a1,1,0,0,0,1,1H9.33a1,1,0,0,0,1-1V24.07H37.83V42.74a1,1,0,0,0,1,1h3.93a1,1,0,0,0,1-1V24.07a3,3,0,0,0,3-2.95V18.18h.49a1,1,0,0,0,1-1V13.75A1,1,0,0,0,47.16,12.77ZM27.51,3h8.84v9.82H27.51ZM15,4.85,14.09,2h6.2l-.86,2.89a1,1,0,0,0,.3,1,3.84,3.84,0,0,1,1.39,3,3.93,3.93,0,1,1-7.86,0,3.87,3.87,0,0,1,1.39-3A1,1,0,0,0,15,4.85ZM8.35,41.76h-2V24.07h2ZM23.09,22.11H4.42a1,1,0,0,1-1-1V18.18H23.09ZM41.76,41.76h-2V24.07h2ZM44.7,21.12a1,1,0,0,1-1,1H25.05V18.18H44.7Zm1.48-4.91H2V14.74H46.18Z"/><rect class="cls-1" x="27.02" y="19.16" width="1.96" height="1.96"/><rect class="cls-1" x="19.16" y="19.16" width="1.96" height="1.96"/><rect class="cls-1" x="30.95" y="3.93" width="1.96" height="1.96"/><rect class="cls-1" x="33.4" y="3.93" width="1.96" height="1.96"/><rect class="cls-1" x="28.49" y="6.88" width="1.96" height="1.96"/><rect class="cls-1" x="30.95" y="6.88" width="1.96" height="1.96"/><rect class="cls-1" x="33.4" y="6.88" width="1.96" height="1.96"/><rect class="cls-1" x="30.46" y="9.82" width="1.96" height="1.96"/><rect class="cls-1" x="32.91" y="9.82" width="1.96" height="1.96"/></g></g></svg>