<svg xmlns="http://www.w3.org/2000/svg" viewBox="0 0 41.51 42.92"><defs><style>.cls-1{fill:#0052f5;}</style></defs><g id="Layer_2" data-name="Layer 2"><g id="Homepage"><path class="cls-1" d="M29.4,11.65a5.83,5.83,0,1,0-5.83-5.82A5.83,5.83,0,0,0,29.4,11.65Zm0-9.42a3.6,3.6,0,1,1-3.61,3.6A3.6,3.6,0,0,1,29.4,2.23Z"/><path class="cls-1" d="M41.25,14.55a1.1,1.1,0,0,0-1.56-.16L35.3,18a3.7,3.7,0,0,1-5-.23L27,14.47h0L17.93,5.35a6,6,0,0,0-8.49,0L5,9.75a1.13,1.13,0,0,0,0,1.58,1.12,1.12,0,0,0,1.57,0L11,6.93a3.82,3.82,0,0,1,5.34,0l2.83,2.82L11.8,17.14a5.89,5.89,0,0,0-1.57,5.4,5.8,5.8,0,0,0,3.09,4.07l-2.94,2.94a2.09,2.09,0,0,1-1.54.62,1.71,1.71,0,0,1-1.23-.56l-.05-.06L1.9,23.89A1.11,1.11,0,0,0,.33,25.47L6,31.1a3.89,3.89,0,0,0,2.81,1.29h.14A4.35,4.35,0,0,0,12,31.13l3.6-3.61,4.32,1.66h0a3.48,3.48,0,0,1,2.26,3.2v9.43a1.11,1.11,0,0,0,2.22,0V32.38a5.72,5.72,0,0,0-3.71-5.28l-6.11-2.35a3.56,3.56,0,0,1-2.15-2.66,3.7,3.7,0,0,1,1-3.38l7.38-7.38,3.93,3.92-7.07,7.07a1.11,1.11,0,0,0,.79,1.9,1.11,1.11,0,0,0,.78-.32l7.07-7.07,2.52,2.51a5.83,5.83,0,0,0,3.83,1.72h.3a6.18,6.18,0,0,0,3.77-1.32l0,0,4.4-3.62A1.1,1.1,0,0,0,41.25,14.55Z"/></g></g></svg>