<svg xmlns="http://www.w3.org/2000/svg" viewBox="0 0 25.81 25.81"><defs><style>.cls-1{fill:#fff;}</style></defs><g id="Layer_2" data-name="Layer 2"><g id="Homepage"><path class="cls-1" d="M5.08,2.87a17.56,17.56,0,0,0,.64,3.71L4,8.3A21.19,21.19,0,0,1,2.91,2.87H5.08M19.22,20.1a18,18,0,0,0,3.72.65v2.14a22.42,22.42,0,0,1-5.45-1.08l1.73-1.71M6.45,0h-5A1.44,1.44,0,0,0,0,1.43,24.37,24.37,0,0,0,24.38,25.81a1.43,1.43,0,0,0,1.43-1.43v-5a1.43,1.43,0,0,0-1.43-1.43,16.34,16.34,0,0,1-5.12-.82,1.15,1.15,0,0,0-.45-.07,1.42,1.42,0,0,0-1,.42l-3.16,3.15a21.73,21.73,0,0,1-9.45-9.45L8.35,8A1.45,1.45,0,0,0,8.7,6.55a16.25,16.25,0,0,1-.81-5.12A1.44,1.44,0,0,0,6.45,0Z"/></g></g></svg>