<svg xmlns="http://www.w3.org/2000/svg" viewBox="0 0 26.26 26.26"><defs><style>.cls-1{fill:#fff;}</style></defs><g id="Layer_2" data-name="Layer 2"><g id="Homepage"><path class="cls-1" d="M13.13,13.13A6.57,6.57,0,1,0,6.56,6.56,6.57,6.57,0,0,0,13.13,13.13Zm0-9.85A3.29,3.29,0,1,1,9.85,6.56,3.29,3.29,0,0,1,13.13,3.28Z"/><path class="cls-1" d="M13.13,14.77C8.75,14.77,0,17,0,21.33v4.93H3.28V21.35c.33-1.18,5.42-3.3,9.85-3.3s9.52,2.12,9.84,3.28v4.93h3.29V21.33C26.26,17,17.51,14.77,13.13,14.77Z"/></g></g></svg>