<svg xmlns="http://www.w3.org/2000/svg" viewBox="0 0 57.72 45.43"><defs><style>.cls-1{fill:#0052f5;}</style></defs><g id="Layer_2" data-name="Layer 2"><g id="Homepage"><path class="cls-1" d="M17.74,33.32A1.35,1.35,0,1,0,16.39,32,1.35,1.35,0,0,0,17.74,33.32Z"/><path class="cls-1" d="M53.31,18.51H26.92V4.41A4.41,4.41,0,0,0,22.52,0H4.41A4.42,4.42,0,0,0,0,4.41V41a4.41,4.41,0,0,0,4.41,4.4h48.9A4.41,4.41,0,0,0,57.72,41V22.92A4.42,4.42,0,0,0,53.31,18.51Zm-51-14.1A2.06,2.06,0,0,1,4.41,2.35H22.52a2.05,2.05,0,0,1,2.05,2.06V6.26H2.35ZM4.41,43.08A2,2,0,0,1,3,42.48,2,2,0,0,1,2.35,41V37.31h9.94V41a4.23,4.23,0,0,0,.22,1.37l.22.68Zm7.88-20.16V35H2.35V8.61H24.57v9.9H16.69A4.41,4.41,0,0,0,12.29,22.92Zm8.12,20.16H16.69a2.06,2.06,0,0,1-2.06-2V22.92a2.06,2.06,0,0,1,2.06-2.06h3.72Zm28.7,0H22.76V20.86H49.11Zm6.26-2a2.05,2.05,0,0,1-2.06,2H51.46V20.86h1.85a2.06,2.06,0,0,1,2.06,2.06Z"/></g></g></svg>